<svg width="23" height="19" viewBox="0 0 23 19" fill="none" xmlns="http://www.w3.org/2000/svg"><path fill-rule="evenodd" clip-rule="evenodd" d="M2.4 1C2.4 0.447715 2.84772 0 3.4 0H12.7C13.2523 0 13.7 0.447715 13.7 1V6.4427L19.2115 8.24977C19.6223 8.38444 19.9 8.76776 19.9 9.2V17H21.3C21.8523 17 22.3 17.4477 22.3 18C22.3 18.5523 21.8523 19 21.3 19H1C0.447715 19 0 18.5523 0 18C0 17.4477 0.447715 17 1 17H2.4V1ZM17.9 17V9.92451L13.7 8.54746V17H17.9ZM11.7 2V17H4.4V2H11.7ZM6.6 3.2C7.15228 3.2 7.6 3.64772 7.6 4.2V6.1C7.6 6.65228 7.15228 7.1 6.6 7.1C6.04772 7.1 5.6 6.65228 5.6 6.1V4.2C5.6 3.64772 6.04772 3.2 6.6 3.2ZM10.4 4.2C10.4 3.64772 9.95228 3.2 9.4 3.2C8.84771 3.2 8.4 3.64772 8.4 4.2V6.1C8.4 6.65228 8.84771 7.1 9.4 7.1C9.95228 7.1 10.4 6.65228 10.4 6.1V4.2ZM6.6 7.7C7.15228 7.7 7.6 8.14771 7.6 8.7V10.7C7.6 11.2523 7.15228 11.7 6.6 11.7C6.04772 11.7 5.6 11.2523 5.6 10.7V8.7C5.6 8.14771 6.04772 7.7 6.6 7.7ZM10.4 8.7C10.4 8.14771 9.95228 7.7 9.4 7.7C8.84771 7.7 8.4 8.14771 8.4 8.7V10.7C8.4 11.2523 8.84771 11.7 9.4 11.7C9.95228 11.7 10.4 11.2523 10.4 10.7V8.7ZM6.6 12.2C7.15228 12.2 7.6 12.6477 7.6 13.2V15.2C7.6 15.7523 7.15228 16.2 6.6 16.2C6.04772 16.2 5.6 15.7523 5.6 15.2V13.2C5.6 12.6477 6.04772 12.2 6.6 12.2ZM10.4 13.2C10.4 12.6477 9.95228 12.2 9.4 12.2C8.84771 12.2 8.4 12.6477 8.4 13.2V15.2C8.4 15.7523 8.84771 16.2 9.4 16.2C9.95228 16.2 10.4 15.7523 10.4 15.2V13.2Z" fill="#005B95"/></svg>
